<?xml version="1.0" encoding="utf-8"?>
<!-- Generator: Adobe Illustrator 22.0.1, SVG Export Plug-In . SVG Version: 6.00 Build 0)  -->
<svg version="1.1" id="Layer_1" xmlns="http://www.w3.org/2000/svg" xmlns:xlink="http://www.w3.org/1999/xlink" x="0px" y="0px"
	 viewBox="0 0 792 612" style="enable-background:new 0 0 792 612;" xml:space="preserve">
<style type="text/css">
	.st0{fill:#A90E1E;}
	.st1{fill:#D37D00;}
	.st2{fill:#674A14;}
</style>
<g>
	<g>
		<path class="st0" d="M167.1,298.1c6.3-0.9,12.5-4.4,13.5-9.9c0.7-4.3-2-7.7-7.5-9.3c2.4-2.1,4.8-3.8,7.4-4.9
			c2.8-1.3,6.3-2.1,9.6-2.1c2.8,0,5.1,0.8,6.2,2.2c0.1,0.1,0.1,0.2,0.2,0.3c0.1,0.2,0.3,0.5,0.7,0.3c0.2-0.1,0.3-0.2,0.4-0.3
			c0.1-0.2,0-0.6-0.2-1c-1-1.8-3.9-3-7.3-3c-3.5,0-7.5,0.8-10.8,2c-2.2,0.8-6.8,3-10.8,5.6c-0.4,0-0.7,0-1.1-0.1
			c-0.4,0-0.8-0.1-1.2-0.1c0,0,0,0,0,0c-12.3-0.3-27.7,4.9-39.3,13.3c-11.6,8.5-17.9,17.9-16.7,25.2c1.1,6.6,6.8,7.4,11.8,7.4
			c10.9,0,24.7-9.6,35.1-24.5c0.3-0.4,0.5-0.8,0.8-1.1c0,0.2,0.1,0.3,0.2,0.4c0.3,0.5,1.2,0.7,2.4,0.7c0.9,0,1.8-0.2,2.4-0.4
			c0.9-0.1,2.9,0.4,4.3,1.7c1.3,1.2,1.9,2.8,1.8,4.7c-0.4,8.6-8.4,16-14.7,16c-1.1,0-2.5-0.3-3.1-1.1c-0.2-0.3-0.3-0.6-0.3-1
			c0.1-0.9,0.9-1.3,1.8-1.7c0.2-0.1,0.5-0.3,0.7-0.4c1.4-0.7,3-1.9,3.1-3.9c0.1-0.9-0.2-1.7-0.7-2.3c-0.6-0.7-1.7-1.1-2.9-1.1
			c-3.5,0-6.7,2.6-7.3,6.1l0,0c-0.3,1.7,0.1,3.1,1.1,4.2c1.4,1.6,4.1,2.6,7.5,2.6c12.2,0,22.1-6.8,22.5-15.4
			C176.9,302.7,173.1,299.1,167.1,298.1z M165,279.5c0.2,0,0.4,0,0.7,0c0.3,0,0.5,0,0.7,0c-0.7,0.5-1.5,1.1-2.2,1.7
			c-5,4.2-12.6,11.9-19,20.7l-1.4,1.9c-7.1,9.9-13.2,18.5-21.6,18.5c-3.5,0-5.8-2.8-5.8-7c0-5.5,3.6-14.5,13.9-23
			C140.3,284,155.5,279.5,165,279.5z M170.2,281.6c0.3-0.3,0.6-0.5,0.9-0.8c2.3,1.5,3.3,4.2,2.5,7.1c-1.3,4.5-5.9,8.8-10.2,9.5
			c-0.7-0.2-1.7-0.4-2.9-0.4c-0.9,0-1.6,0.1-2,0.3c0.6-0.9,1.2-1.7,1.7-2.5c3.5-5.1,6.3-9.2,9-12.2
			C169.6,282.2,169.9,281.9,170.2,281.6z"/>
		<path class="st0" d="M264.8,312.3c-0.3,0.1-0.9,0.5-1.3,1l-0.4,0.4c-0.7,0.7-0.9,0.8-2.5,2.3c-1.4,1.3-2.8,2.4-3.8,3
			c-0.8,0.4-1.6,0.5-1.9,0.3c-0.3-0.3-0.2-0.8,0.1-1.7c0.6-1.1,1.3-2.3,2.1-3.4c0.3-0.5,0.7-1.1,1.1-1.7c1-1.5,2.4-3,3.8-4.4
			c1.1-1.1,2-2.1,2.8-3.1c0.6-0.9,0.8-1.6,0.5-2.2c-0.3-0.6-1.1-1.1-2.3-0.8c-1.4,0.3-3.4,1-6,3.6c0-0.7-0.2-1.4-0.7-2
			c-0.6-0.7-1.4-1.1-2.5-1.2c-3-0.2-8.1,1.3-10.6,2.9c-2.2,1.3-4.5,2.9-6.2,4.2c-0.4,0.4-0.8,0.8-1.2,1.2c-0.6,0.6-1.2,1.1-1.8,1.8
			c-0.1,0.1-0.2,0.2-0.2,0.3c-1,1-2.2,2.3-3.3,3.2c-1.7,1.4-3.1,2.5-4.3,3.2c-0.6,0.3-1.3,0.4-1.6,0.2c-0.4-0.2-0.3-1-0.1-1.7
			c0.4-1.7,4.8-6.9,9.3-12.3c3.7-4.4,7.4-8.9,10.1-12.6c3.1-4.3,9.5-11.7,12.6-15.2c0.6-0.7,1.1-1.3,1.4-1.6l0.1-0.1l-0.1-0.2
			c-0.2-0.5-1.1-1.2-2.9-1.2c-1.7,0-3.9,0.3-5.1,1.7c-2,2.1-3.8,4.2-5.7,6.4c-1.9,2.2-3.9,4.4-6.1,6.8c-0.9,0.9-1.9,2-3,3.1
			c-4.4,4.6-9.8,10.3-11.6,13.1c-2.2,2.2-4,4.1-5.8,5.9l-0.3,0.3c0,0,0,0,0,0l-0.4,0.4c-1.1,1.2-2.6,2.7-3.9,3.8
			c-1.7,1.4-3.1,2.5-4.3,3.2c-0.6,0.3-1.3,0.4-1.6,0.2c-0.4-0.2-0.3-1-0.1-1.7c0.4-1.7,4.8-6.9,9.3-12.3c3.7-4.4,7.4-8.9,10.1-12.6
			c3.6-5.2,11.6-15.3,13.5-17.4l0.1-0.1l-0.1-0.2c-0.2-0.5-1.1-1.2-2.9-1.2c-1.7,0-3.2,0.8-4.4,2.2c-1.5,1.5-2.8,2.8-4.2,4.1
			c-2.4,2.3-4.9,4.7-8.1,8.5c-1.5,1.8-3.4,3.9-5.4,6.2c-3.6,4.1-7.4,8.3-8.8,10.5c-2.2,2.2-4,4-5.7,5.8l-0.3,0.4l0,0
			c-1.3,1.4-3.8,3.7-5.7,5.1c-3,2.2-6.4,3.6-8.6,3.5c-1.3,0-1.9-0.7-1.9-2.1c0-0.6,0.2-1.2,0.5-1.8c2.6-0.7,6.3-1.9,8.9-3.2
			c2.7-1.5,5.9-3.7,6.1-6.7l0,0c0-0.8-0.2-1.6-0.8-2.1c-0.7-0.8-1.9-1.2-3.5-1.2c-3.1,0-6.5,1.1-10.1,3.3c-1.4,0.8-2.7,1.8-3.7,2.6
			c-0.3,0.3-0.6,0.5-0.9,0.7c-0.3,0.2-0.5,0.5-0.8,0.7c-0.7,0.6-1.5,1.4-2.2,2.1c-0.4,0.5-0.9,1.1-0.6,1.6c0.1,0.1,0.2,0.1,0.3,0.1
			c0.1,0,0.3,0,0.6-0.2c-0.8,1.4-1.1,2.7-1.1,4c0,1.3,0.4,2.4,1.2,3.2c1.1,1.1,2.8,1.6,5.2,1.6c0.2,0,0.5,0,0.7,0
			c3.5-0.1,8-1.9,11.5-4.7c2.3-1.7,4.2-3.7,5.3-5c0.1-0.1,0.2-0.2,0.3-0.3c0.3-0.3,0.7-0.7,1.1-1.2c0.3-0.3,0.6-0.6,0.9-0.9
			c-1.8,2.9-3.4,6.2-3.5,8.5v0c0,1.6,0.7,3.5,4,3.5c3.9,0,7.5-3,9.5-4.6c1.9-1.7,4.2-4,5.3-5.3c0,0,0,0,0,0c0.3-0.3,0.7-0.7,1.1-1.2
			c0.3-0.3,0.6-0.6,0.9-0.9c-1.8,2.9-3.4,6.2-3.5,8.5v0c0,1.6,0.7,3.5,4,3.5c3.9,0,7.5-3,9.5-4.6c1.2-1.1,2.5-2.4,3.6-3.5
			c-0.6,1.2-0.9,2.3-1,3.3c-0.1,1.5,0.2,2.7,0.9,3.5c0.8,0.9,2.2,1.3,4.1,1.3c3.1-0.1,6.5-1.9,10.2-5.4c-0.3,0.9-0.5,1.9-0.4,2.6
			c0.2,1.7,1.7,2.8,3.9,2.8c3.1,0,5.8-1.8,8.8-4.5c0.7-0.7,1.6-1.4,2.1-1.8c0.7-0.7,1.1-0.9,1.7-1.6c0.5-0.4,0.4-0.8,0.7-2.2
			C264.8,312.6,264.8,312.3,264.8,312.3z M240.3,320.5c-0.5,0-0.8-0.3-0.9-0.8c-0.1-1,1.2-3.8,4.9-8.1c3.3-3.7,8.2-7.4,9.9-7.4
			c0.5,0,0.8,0.1,1,0.4c0.2,0.3,0.4,0.7,0.3,1.2c-0.1,1.6-5.8,7.6-7.9,9.8C245.2,318.3,241.8,320.5,240.3,320.5z M194,304.9
			c0.3,0,0.4,0.1,0.6,0.2c0.2,0.2,0.2,0.5,0.2,1c-0.2,1.3-1.6,3.8-3.9,5.7c-2.1,1.8-4.3,2.7-5.6,3.1c1-1.8,2.6-4.4,4.1-6.1
			C192,305.4,193.4,304.9,194,304.9z"/>
	</g>
	<path class="st0" d="M418.9,329.9l-5,5.3l-0.1,0.1c-0.9,0.9-1.8,1.9-2.8,3.1l-0.3,0.4l0,0c-0.7,0.8-1.4,1.6-2.1,2.4
		c-1.6,1.7-3.1,3.4-4.4,5.2c-1.6,2.1-2.6,3.3-3.4,4.2c-1.1,1.3-1.8,2.1-3.2,4.4c0-0.6-0.2-1.1-0.6-1.5c-0.5-0.6-1.3-1-2.3-1
		c-3.1-0.2-6.6,1.2-9,2.6c-2,1.2-3.6,2.4-4.4,3.1c-0.4,0.3-0.9,0.7-1.4,1.2c-0.2,0.1-0.3,0.3-0.5,0.4l-0.2,0.1c-1,1-2.7,2.5-3.9,3.6
		c-0.8,0.9-2.4,2.2-3.2,2.7c-0.8,0.3-1.4,0.4-1.6,0.2c-0.2-0.2-0.3-0.5,0.2-1.7c0.4-0.7,1-1.6,1.8-2.8l0.6-0.9
		c0.2-0.3,0.4-0.6,0.6-0.9c1.1-1.6,2.3-3.3,2.4-4.8c0.1-0.9-0.1-1.6-0.6-2.1c-0.6-0.6-1.5-0.9-2.8-0.9c-3.4,0-7,2.6-10,5.2
		c-1.9,1.7-3.6,3.3-5.2,4.8c-0.3,0.3-0.6,0.6-1,0.9c0.4-0.6,0.8-1.2,1.2-1.9c0.5-0.8,1.1-1.7,1.6-2.5c0.8-1.3,1.6-2.6,1.6-4
		c0-1.6-1.2-2.6-3.2-2.6c-2.4,0-5.2,2.1-7.2,3.9c-1.4,1.3-3,2.9-3.9,4l-0.5,0.5c-0.8,0.8-1.8,1.7-2.9,2.8c-1.2,1.1-2.4,2.1-3.4,2.6
		c-0.7,0.3-1.3,0.4-1.6,0.2c-0.2-0.2-0.2-0.7,0.1-1.4c0.5-1,1.2-2,1.8-3c0.3-0.5,0.6-1,0.9-1.5c1.6-2.4,2.8-4.1,4.2-6
		c0.3-0.4,0.6-0.9,0.4-1.3c-0.2-0.4-0.9-0.6-2.3-0.5l-0.4,0c-1.3,0-2.3,0-4.4,2.4c0-0.6-0.2-1.2-0.6-1.6c-0.5-0.6-1.3-1-2.3-1
		c-2.5-0.2-5.6,0.6-7.9,1.9c-2,1.1-4,2.5-5.5,3.7c-0.3,0.3-0.7,0.7-1.1,1c-0.5,0.5-1.1,1-1.6,1.5c-0.4,0.4-0.8,1-0.6,1.4
		c0.1,0.1,0.2,0.1,0.3,0.1c0.1,0,0.2,0,0.3-0.1c-0.6,1.2-1,2.3-1.1,3.3c-0.1,1.3,0.2,2.3,0.8,3c0.7,0.8,1.9,1.2,3.7,1.2
		c2.7-0.1,5.7-1.6,8.9-4.6c-0.3,0.7-0.4,1.6-0.3,2.2c0.2,1.5,1.5,2.4,3.4,2.4c2.8,0,5.1-1.6,7.7-3.9c1.3-1.2,3-2.9,4.1-4.1l0.2-0.1
		c1-1.1,2.2-2.2,3.7-3.6l0.5-0.5c0.8-0.7,1.6-1.4,2.4-1.9c0.3-0.2,0.7-0.4,0.8-0.3c0.2,0.2,0,0.7-0.3,1.1c-0.7,1.2-1.3,2.1-1.9,2.9
		c-0.4,0.6-0.8,1.2-1.2,1.9c-1.4,2.2-2.6,4.4-3.4,6.1c-0.2,0.5-0.4,1-0.1,1.4c0.3,0.4,1.1,0.5,2.3,0.4c0.9-0.1,2.6-0.5,3.3-1.1
		l1.3-1.2c2.7-2.3,4.8-4.2,7.7-6.9c2.4-2.2,4.4-3.7,5.8-4.6l0.2-0.1c0.5-0.2,1.4-0.6,1.7-0.4c0.1,0,0.1,0.1,0.1,0.2
		c0,0.2,0,0.4-0.1,0.6l-0.6,0.7c-0.8,1.1-1.8,2.4-2.7,3.7l-0.4,0.5c-1.1,1.6-2.5,3.6-2.7,5.1c-0.1,1,0.1,1.9,0.7,2.5
		c0.6,0.7,1.7,1.1,3.2,1.1c3.4,0,6.4-2.7,7.7-3.8c1-0.8,2.2-2,3.2-3c-0.5,1-0.8,2-0.8,2.8c-0.1,1.3,0.2,2.3,0.8,3
		c0.7,0.8,1.9,1.2,3.7,1.2c3.5-0.1,6.8-2.6,8.9-4.7c-0.3,0.8-0.3,1.6-0.3,2.2c0.1,1.2,1.2,2.4,3.4,2.4c2.8,0,5.1-1.6,7.7-3.9
		c1.5-1.3,3.8-3.7,4.8-4.8c0,0,0.8-0.7,0.8-1.3c0-0.2-0.1-0.3-0.2-0.4c-0.1-0.1-0.2-0.2-0.4-0.2c-0.3,0-0.6,0.3-0.9,0.7l-0.1,0.1
		c-0.3,0.3-0.7,0.6-1.1,1c-0.8,0.7-1.7,1.7-2.8,2.7c-1.2,1.1-2.4,2.1-3.3,2.6c-0.7,0.3-1.4,0.4-1.6,0.2c-0.2-0.2-0.2-0.7,0.1-1.4
		c0.8-1.7,4.8-7.6,6.7-10.4c3-4.4,3.9-5.5,4.9-6.6c0.5-0.6,1.1-1.3,2-2.5c0.4-0.5,0.8-1,1.2-1.5c0.4-0.5,0.9-1,1.3-1.5l6.1-6.8
		l0.1-0.1L418.9,329.9z M396.2,355.2c-0.1,1.3-3,5.4-5.5,7.9l0,0c-2.1,2.3-5.1,4.2-6.5,4.2c-0.5,0-0.7-0.2-0.8-0.7
		c-0.1-0.9,1-3.2,4.3-7c3.3-3.7,6-5.8,7.3-5.8c0.4,0,0.7,0.1,0.9,0.3C396.1,354.4,396.2,354.8,396.2,355.2z M331.7,363.2
		c-2.1,2.3-5.1,4.2-6.5,4.2c-0.5,0-0.7-0.2-0.8-0.7c-0.1-0.9,1-3.2,4.3-7c3.3-3.7,6-5.8,7.3-5.8c0.4,0,0.7,0.1,0.9,0.3
		c0.2,0.2,0.3,0.6,0.3,1C337.1,356.6,334.1,360.6,331.7,363.2L331.7,363.2z"/>
	<g>
		<path class="st1" d="M119.1,369.9V345h18.2v4.2h-12.8v5.9h11.1v4.2h-11.1v10.6H119.1z"/>
		<path class="st1" d="M150.7,369.9v-24.7h5.3v20.5h13.3v4.2H150.7z"/>
		<path class="st1" d="M180.9,357.6c0-2.5,0.4-4.7,1.2-6.4c0.6-1.3,1.4-2.4,2.5-3.4c1-1,2.2-1.8,3.4-2.2c1.6-0.7,3.6-1,5.7-1
			c3.9,0,7,1.1,9.4,3.4c2.3,2.3,3.5,5.4,3.5,9.5c0,4-1.2,7.2-3.5,9.4c-2.3,2.3-5.4,3.4-9.3,3.4c-3.9,0-7.1-1.1-9.4-3.4
			C182.1,364.7,180.9,361.6,180.9,357.6z M186.4,357.5c0,2.8,0.7,5,2.1,6.4c1.4,1.5,3.1,2.2,5.3,2.2c2.1,0,3.9-0.7,5.2-2.2
			c1.4-1.4,2.1-3.6,2.1-6.5c0-2.9-0.7-5-2-6.4c-1.3-1.4-3.1-2.1-5.3-2.1c-2.2,0-4,0.7-5.3,2.1C187.1,352.4,186.4,354.6,186.4,357.5z
			"/>
		<path class="st1" d="M218.6,357.6c0-2.5,0.4-4.7,1.2-6.4c0.6-1.3,1.4-2.4,2.5-3.4c1-1,2.2-1.8,3.4-2.2c1.6-0.7,3.6-1,5.7-1
			c3.9,0,7,1.1,9.4,3.4c2.3,2.3,3.5,5.4,3.5,9.5c0,4-1.2,7.2-3.5,9.4c-2.3,2.3-5.4,3.4-9.3,3.4c-3.9,0-7.1-1.1-9.4-3.4
			C219.7,364.7,218.6,361.6,218.6,357.6z M224.1,357.5c0,2.8,0.7,5,2.1,6.4c1.4,1.5,3.1,2.2,5.3,2.2c2.1,0,3.9-0.7,5.2-2.2
			c1.4-1.4,2.1-3.6,2.1-6.5c0-2.9-0.7-5-2-6.4c-1.3-1.4-3.1-2.1-5.3-2.1c-2.2,0-4,0.7-5.3,2.1C224.8,352.4,224.1,354.6,224.1,357.5z
			"/>
		<path class="st1" d="M257.3,369.9V345h11.3c2.8,0,4.9,0.2,6.2,0.7c1.3,0.4,2.3,1.2,3.1,2.4s1.2,2.5,1.2,3.9c0,1.9-0.6,3.4-1.8,4.6
			c-1.2,1.2-2.9,2-5.2,2.3c1.2,0.6,2.1,1.3,2.9,2.1c0.8,0.8,1.8,2.1,3,4l3.2,4.9h-6.4l-3.9-5.4c-1.4-1.9-2.3-3.2-2.8-3.7
			c-0.5-0.5-1-0.8-1.6-1c-0.6-0.2-1.5-0.3-2.7-0.3h-1.1v10.4H257.3z M262.7,355.6h4c2.6,0,4.2-0.1,4.8-0.3c0.6-0.2,1.1-0.6,1.5-1.1
			c0.4-0.5,0.5-1.1,0.5-1.9c0-0.8-0.2-1.5-0.7-2c-0.5-0.5-1.1-0.8-2-1c-0.4-0.1-1.7-0.1-3.9-0.1h-4.2V355.6z"/>
		<path class="st1" d="M291.6,361.8l5.2-0.5c0.3,1.6,0.9,2.9,1.9,3.6c1,0.8,2.2,1.2,3.9,1.2c1.7,0,3-0.3,3.9-1
			c0.9-0.7,1.3-1.5,1.3-2.4c0-0.6-0.2-1.1-0.6-1.5c-0.4-0.4-1-0.8-1.9-1.1c-0.6-0.2-2.1-0.6-4.3-1.1c-2.9-0.7-4.9-1.5-6-2.5
			c-1.6-1.4-2.4-3-2.4-5c0-1.3,0.4-2.5,1.1-3.6c0.8-1.1,1.9-1.9,3.3-2.5c1.4-0.6,3.2-0.9,5.2-0.9c3.3,0,5.8,0.7,7.5,2.1
			c1.7,1.4,2.6,3.2,2.6,5.5l-5.3,0.2c-0.2-1.3-0.7-2.2-1.5-2.8c-0.8-0.6-1.9-0.8-3.4-0.8c-1.6,0-2.8,0.3-3.6,0.9
			c-0.6,0.4-0.8,0.9-0.8,1.5c0,0.6,0.3,1.1,0.8,1.5c0.7,0.5,2.3,1.1,4.9,1.7c2.6,0.6,4.5,1.2,5.8,1.8c1.2,0.6,2.2,1.5,2.9,2.5
			c0.7,1.1,1.1,2.4,1.1,4c0,1.4-0.4,2.8-1.3,4c-0.8,1.2-2,2.2-3.6,2.8c-1.5,0.6-3.5,0.9-5.8,0.9c-3.3,0-5.9-0.7-7.7-2.2
			C293,366.7,291.9,364.6,291.6,361.8z"/>
	</g>
	<g>
		<g>
			<path class="st1" d="M415.7,361.8l5.2-0.5c0.3,1.6,0.9,2.9,1.9,3.6c1,0.8,2.2,1.2,3.9,1.2c1.7,0,3-0.3,3.9-1
				c0.9-0.7,1.3-1.5,1.3-2.4c0-0.6-0.2-1.1-0.6-1.5c-0.4-0.4-1-0.8-1.9-1.1c-0.6-0.2-2.1-0.6-4.3-1.1c-2.9-0.7-4.9-1.5-6-2.5
				c-1.6-1.4-2.4-3-2.4-5c0-1.3,0.4-2.5,1.1-3.6c0.8-1.1,1.9-1.9,3.3-2.5c1.4-0.6,3.2-0.9,5.2-0.9c3.3,0,5.8,0.7,7.5,2.1
				c1.7,1.4,2.6,3.2,2.6,5.5l-5.3,0.2c-0.2-1.3-0.7-2.2-1.5-2.8c-0.8-0.6-1.9-0.8-3.4-0.8c-1.6,0-2.8,0.3-3.6,0.9
				c-0.6,0.4-0.8,0.9-0.8,1.5c0,0.6,0.3,1.1,0.8,1.5c0.7,0.5,2.3,1.1,4.9,1.7c2.6,0.6,4.5,1.2,5.8,1.8c1.2,0.6,2.2,1.5,2.9,2.5
				c0.7,1.1,1.1,2.4,1.1,4c0,1.4-0.4,2.8-1.3,4c-0.8,1.2-2,2.2-3.6,2.8c-1.5,0.6-3.5,0.9-5.8,0.9c-3.3,0-5.9-0.7-7.7-2.2
				C417.1,366.7,416.1,364.6,415.7,361.8z"/>
			<path class="st1" d="M455.1,369.9v-20.7h-7.9V345h21v4.2h-7.8v20.7H455.1z"/>
			<path class="st1" d="M505.5,369.9h-5.8l-2.3-5.7h-10.6l-2.2,5.7h-5.7l10.3-24.9h5.7L505.5,369.9z M495.6,360.1l-3.6-9.2l-3.6,9.2
				H495.6z"/>
			<path class="st1" d="M517.7,369.9V345h5.3v24.9H517.7z"/>
			<path class="st1" d="M537.8,369.9V345h11.3c2.8,0,4.9,0.2,6.2,0.7c1.3,0.4,2.3,1.2,3.1,2.4c0.8,1.1,1.2,2.5,1.2,3.9
				c0,1.9-0.6,3.4-1.8,4.6c-1.2,1.2-2.9,2-5.2,2.3c1.2,0.6,2.1,1.3,2.9,2.1c0.8,0.8,1.8,2.1,3,4l3.2,4.9h-6.4l-3.9-5.4
				c-1.4-1.9-2.3-3.2-2.8-3.7c-0.5-0.5-1-0.8-1.6-1c-0.6-0.2-1.5-0.3-2.7-0.3h-1.1v10.4H537.8z M543.2,355.6h4
				c2.6,0,4.2-0.1,4.8-0.3c0.6-0.2,1.1-0.6,1.5-1.1c0.4-0.5,0.5-1.1,0.5-1.9c0-0.8-0.2-1.5-0.7-2c-0.5-0.5-1.1-0.8-2-1
				c-0.4-0.1-1.7-0.1-3.9-0.1h-4.2V355.6z"/>
			<path class="st1" d="M571.3,361.8l5.2-0.5c0.3,1.6,0.9,2.9,1.9,3.6c1,0.8,2.2,1.2,3.9,1.2c1.7,0,3-0.3,3.9-1
				c0.9-0.7,1.3-1.5,1.3-2.4c0-0.6-0.2-1.1-0.6-1.5c-0.4-0.4-1-0.8-1.9-1.1c-0.6-0.2-2.1-0.6-4.3-1.1c-2.9-0.7-4.9-1.5-6-2.5
				c-1.6-1.4-2.4-3-2.4-5c0-1.3,0.4-2.5,1.1-3.6c0.8-1.1,1.9-1.9,3.3-2.5c1.4-0.6,3.2-0.9,5.2-0.9c3.3,0,5.8,0.7,7.5,2.1
				c1.7,1.4,2.6,3.2,2.6,5.5l-5.3,0.2c-0.2-1.3-0.7-2.2-1.5-2.8c-0.8-0.6-1.9-0.8-3.4-0.8c-1.6,0-2.8,0.3-3.6,0.9
				c-0.6,0.4-0.8,0.9-0.8,1.5c0,0.6,0.3,1.1,0.8,1.5c0.7,0.5,2.3,1.1,4.9,1.7c2.6,0.6,4.5,1.2,5.8,1.8c1.2,0.6,2.2,1.5,2.9,2.5
				c0.7,1.1,1.1,2.4,1.1,4c0,1.4-0.4,2.8-1.3,4c-0.8,1.2-2,2.2-3.6,2.8c-1.5,0.6-3.5,0.9-5.8,0.9c-3.3,0-5.9-0.7-7.7-2.2
				C572.7,366.7,571.7,364.6,571.3,361.8z"/>
			<path class="st1" d="M596.6,369.9v-4.8h5.1v4.8H596.6z"/>
			<path class="st1" d="M623.6,357.2l-5,0.8c-0.2-0.9-0.6-1.6-1.1-2.1c-0.6-0.5-1.4-0.7-2.3-0.7c-1.3,0-2.3,0.4-3,1.2
				c-0.8,0.8-1.1,2.2-1.1,4.1c0,2.1,0.4,3.7,1.1,4.5s1.8,1.3,3.1,1.3c1,0,1.8-0.3,2.4-0.8c0.6-0.5,1-1.4,1.3-2.7l5,0.8
				c-0.5,2.2-1.5,3.8-3,4.9c-1.5,1.1-3.4,1.6-5.9,1.6c-2.8,0-5-0.8-6.7-2.5c-1.7-1.7-2.5-4-2.5-6.9c0-3,0.8-5.3,2.5-7
				c1.7-1.7,3.9-2.5,6.8-2.5c2.3,0,4.2,0.5,5.6,1.4C622,353.8,623,355.3,623.6,357.2z"/>
			<path class="st1" d="M625.5,360.7c0-1.6,0.4-3.1,1.2-4.6c0.8-1.5,2-2.6,3.5-3.4c1.5-0.8,3.2-1.2,5.1-1.2c2.9,0,5.3,0.9,7.1,2.7
				c1.9,1.8,2.8,4,2.8,6.7c0,2.7-0.9,5-2.8,6.8c-1.9,1.8-4.2,2.7-7.1,2.7c-1.8,0-3.4-0.4-5-1.1c-1.6-0.7-2.8-1.8-3.6-3.3
				C625.9,364.5,625.5,362.7,625.5,360.7z M630.7,360.9c0,1.8,0.5,3.2,1.4,4.1c0.9,1,2,1.4,3.3,1.4c1.3,0,2.4-0.5,3.3-1.4
				c0.9-1,1.3-2.3,1.3-4.1c0-1.8-0.4-3.1-1.3-4.1c-0.9-1-2-1.4-3.3-1.4c-1.3,0-2.4,0.5-3.3,1.4C631.1,357.7,630.7,359.1,630.7,360.9
				z"/>
			<path class="st1" d="M648.1,351.9h4.7v2.5c1.7-1.9,3.7-2.9,6-2.9c1.2,0,2.3,0.2,3.2,0.7c0.9,0.5,1.6,1.2,2.2,2.2
				c0.8-1,1.8-1.7,2.7-2.2c1-0.5,2-0.7,3.1-0.7c1.4,0,2.6,0.3,3.6,0.8c1,0.5,1.7,1.3,2.2,2.4c0.3,0.8,0.5,2,0.5,3.7v11.5h-5.1v-10.3
				c0-1.8-0.2-2.9-0.5-3.5c-0.5-0.7-1.2-1-2.2-1c-0.7,0-1.4,0.2-2,0.6c-0.6,0.4-1.1,1-1.4,1.8c-0.3,0.8-0.4,2-0.4,3.7v8.7h-5.1V360
				c0-1.8-0.1-2.9-0.3-3.4c-0.2-0.5-0.5-0.9-0.8-1.1c-0.4-0.2-0.9-0.4-1.5-0.4c-0.8,0-1.5,0.2-2.1,0.6c-0.6,0.4-1.1,1-1.3,1.7
				c-0.3,0.7-0.4,2-0.4,3.7v8.8h-5.1V351.9z"/>
		</g>
	</g>
	<rect x="113.4" y="380.5" class="st2" width="121.8" height="25.3"/>
	<rect x="560.2" y="410" class="st2" width="121.8" height="25.3"/>
	<rect x="243.1" y="380.5" class="st1" width="433.6" height="25.3"/>
	<rect x="114" y="410" class="st1" width="439.4" height="25.3"/>
	<rect x="559.2" y="410" class="st2" width="122.8" height="25.3"/>
	<path class="st0" d="M123,267.2l144.1-34.4l-5.6-5.6l0.8-6.9l-140,38.1l-7.5,1.8c-2,0.5-3.2,2.5-2.7,4.5l0.3,1.2
		c0.4,1.8,2.2,3,4,2.8l0,0l0.3-0.1c0.1,0,0.1,0,0.2,0L123,267.2z"/>
	<path class="st0" d="M669,275.1l-3.5-0.6L404,223l-0.8-12.6l6.5-2.5c0,0,4-1.2,0.6-3.4l-86.6-37.1l-72.9,27.9l7.9,3.8l-3.9,11
		l67.5-25.2l59,16.2l7.6,40.3l273.9,39l5.1,0.9c1.7,0.3,3.3-0.9,3.6-2.5l0-0.2C671.8,277,670.7,275.4,669,275.1z"/>
</g>
</svg>
