<?xml version="1.0" encoding="utf-8"?>
<!-- Generator: Adobe Illustrator 22.0.1, SVG Export Plug-In . SVG Version: 6.00 Build 0)  -->
<svg version="1.1" id="Layer_1" xmlns="http://www.w3.org/2000/svg" xmlns:xlink="http://www.w3.org/1999/xlink" x="0px" y="0px"
	 viewBox="0 0 792 612" style="enable-background:new 0 0 792 612;" xml:space="preserve">
<style type="text/css">
	.st0{opacity:0.74;}
	.st1{fill:#FFFFFF;}
	.st2{fill:#A90E1E;}
	.st3{fill:#D37D00;}
	.st4{fill:#674A14;}
</style>
<g>
	<g class="st0">
		<path class="st1" d="M-831.3,259.5c6.3-0.9,12.5-4.4,13.5-9.9c0.7-4.3-2-7.7-7.5-9.3c2.4-2.1,4.8-3.8,7.4-4.9
			c2.8-1.3,6.3-2.1,9.6-2.1c2.8,0,5.1,0.8,6.2,2.2c0.1,0.1,0.1,0.2,0.2,0.3c0.1,0.2,0.3,0.5,0.7,0.3c0.2-0.1,0.3-0.2,0.4-0.3
			c0.1-0.2,0-0.6-0.2-1c-1-1.8-3.9-3-7.3-3c-3.5,0-7.5,0.8-10.8,2c-2.2,0.8-6.8,3-10.8,5.6c-0.4,0-0.7,0-1.1-0.1
			c-0.4,0-0.8-0.1-1.2-0.1c0,0,0,0,0,0c-12.3-0.3-27.7,4.9-39.3,13.3c-11.6,8.5-17.9,17.9-16.7,25.2c1.1,6.6,6.8,7.4,11.8,7.4
			c10.9,0,24.7-9.6,35.1-24.5c0.3-0.4,0.5-0.8,0.8-1.1c0,0.2,0.1,0.3,0.2,0.4c0.3,0.5,1.2,0.7,2.4,0.7c0.9,0,1.8-0.2,2.4-0.4
			c0.9-0.1,2.9,0.4,4.3,1.7c1.3,1.2,1.9,2.8,1.8,4.7c-0.4,8.6-8.4,16-14.7,16c-1.1,0-2.5-0.3-3.1-1.1c-0.2-0.3-0.3-0.6-0.3-1
			c0.1-0.9,0.9-1.3,1.8-1.7c0.2-0.1,0.5-0.3,0.7-0.4c1.4-0.7,3-1.9,3.1-3.9c0.1-0.9-0.2-1.7-0.7-2.3c-0.6-0.7-1.7-1.1-2.9-1.1
			c-3.5,0-6.7,2.6-7.3,6.1l0,0c-0.3,1.7,0.1,3.1,1.1,4.2c1.4,1.6,4.1,2.6,7.5,2.6c12.2,0,22.1-6.8,22.5-15.4
			C-821.5,264.1-825.3,260.5-831.3,259.5z M-833.4,240.9c0.2,0,0.4,0,0.7,0c0.3,0,0.5,0,0.7,0c-0.7,0.5-1.5,1.1-2.2,1.7
			c-5,4.2-12.6,11.9-19,20.7l-1.4,1.9c-7.1,9.9-13.2,18.5-21.6,18.5c-3.5,0-5.8-2.8-5.8-7c0-5.5,3.6-14.5,13.9-23
			C-858.1,245.3-843,240.9-833.4,240.9z M-828.2,243c0.3-0.3,0.6-0.5,0.9-0.8c2.3,1.5,3.3,4.2,2.5,7.1c-1.3,4.5-5.9,8.8-10.2,9.5
			c-0.7-0.2-1.7-0.4-2.9-0.4c-0.9,0-1.6,0.1-2,0.3c0.6-0.9,1.2-1.7,1.7-2.5c3.5-5.1,6.3-9.2,9-12.2
			C-828.9,243.6-828.5,243.3-828.2,243z"/>
		<path class="st1" d="M-733.6,273.7c-0.3,0.1-0.9,0.5-1.3,1l-0.4,0.4c-0.7,0.7-0.9,0.8-2.5,2.3c-1.4,1.3-2.8,2.4-3.8,3
			c-0.8,0.4-1.6,0.5-1.9,0.3c-0.3-0.3-0.2-0.8,0.1-1.7c0.6-1.1,1.3-2.3,2.1-3.4c0.3-0.5,0.7-1.1,1.1-1.7c1-1.5,2.4-3,3.8-4.4
			c1.1-1.1,2-2.1,2.8-3.1c0.6-0.9,0.8-1.6,0.5-2.2c-0.3-0.6-1.1-1.1-2.3-0.8c-1.4,0.3-3.4,1-6,3.6c0-0.7-0.2-1.4-0.7-2
			c-0.6-0.7-1.4-1.1-2.5-1.2c-3-0.2-8.1,1.3-10.6,2.9c-2.2,1.3-4.5,2.9-6.2,4.2c-0.4,0.4-0.8,0.8-1.2,1.2c-0.6,0.6-1.2,1.1-1.8,1.8
			c-0.1,0.1-0.2,0.2-0.2,0.3c-1,1-2.2,2.3-3.3,3.2c-1.7,1.4-3.1,2.5-4.3,3.2c-0.6,0.3-1.3,0.4-1.6,0.2c-0.4-0.2-0.3-1-0.1-1.7
			c0.4-1.7,4.8-6.9,9.3-12.3c3.7-4.4,7.4-8.9,10.1-12.6c3.1-4.3,9.5-11.7,12.6-15.2c0.6-0.7,1.1-1.3,1.4-1.6l0.1-0.1l-0.1-0.2
			c-0.2-0.5-1.1-1.2-2.9-1.2c-1.7,0-3.9,0.3-5.1,1.7c-2,2.1-3.8,4.2-5.7,6.4c-1.9,2.2-3.9,4.4-6.1,6.8c-0.9,0.9-1.9,2-3,3.1
			c-4.4,4.6-9.8,10.3-11.6,13.1c-2.2,2.2-4,4.1-5.8,5.9l-0.3,0.3c0,0,0,0,0,0l-0.4,0.4c-1.1,1.2-2.6,2.7-3.9,3.8
			c-1.7,1.4-3.1,2.5-4.3,3.2c-0.6,0.3-1.3,0.4-1.6,0.2c-0.4-0.2-0.3-1-0.1-1.7c0.4-1.7,4.8-6.9,9.3-12.3c3.7-4.4,7.4-8.9,10.1-12.6
			c3.6-5.2,11.6-15.3,13.5-17.4l0.1-0.1l-0.1-0.2c-0.2-0.5-1.1-1.2-2.9-1.2c-1.7,0-3.2,0.8-4.4,2.2c-1.5,1.5-2.8,2.8-4.2,4.1
			c-2.4,2.3-4.9,4.7-8.1,8.5c-1.5,1.8-3.4,3.9-5.4,6.2c-3.6,4.1-7.4,8.3-8.8,10.5c-2.2,2.2-4,4-5.7,5.8l-0.3,0.4l0,0
			c-1.3,1.4-3.8,3.7-5.7,5.1c-3,2.2-6.4,3.6-8.6,3.5c-1.3,0-1.9-0.7-1.9-2.1c0-0.6,0.2-1.2,0.5-1.8c2.6-0.7,6.3-1.9,8.9-3.2
			c2.7-1.5,5.9-3.7,6.1-6.7l0,0c0-0.8-0.2-1.6-0.8-2.1c-0.7-0.8-1.9-1.2-3.5-1.2c-3.1,0-6.5,1.1-10.1,3.3c-1.4,0.8-2.7,1.8-3.7,2.6
			c-0.3,0.3-0.6,0.5-0.9,0.7c-0.3,0.2-0.5,0.5-0.8,0.7c-0.7,0.6-1.5,1.4-2.2,2.1c-0.4,0.5-0.9,1.1-0.6,1.6c0.1,0.1,0.2,0.1,0.3,0.1
			c0.1,0,0.3,0,0.6-0.2c-0.8,1.4-1.1,2.7-1.1,4c0,1.3,0.4,2.4,1.2,3.2c1.1,1.1,2.8,1.6,5.2,1.6c0.2,0,0.5,0,0.7,0
			c3.5-0.1,8-1.9,11.5-4.7c2.3-1.7,4.2-3.7,5.3-5c0.1-0.1,0.2-0.2,0.3-0.3c0.3-0.3,0.7-0.7,1.1-1.2c0.3-0.3,0.6-0.6,0.9-0.9
			c-1.8,2.9-3.4,6.2-3.5,8.5v0c0,1.6,0.7,3.5,4,3.5c3.9,0,7.5-3,9.5-4.6c1.9-1.7,4.2-4,5.3-5.3c0,0,0,0,0,0c0.3-0.3,0.7-0.7,1.1-1.2
			c0.3-0.3,0.6-0.6,0.9-0.9c-1.8,2.9-3.4,6.2-3.5,8.5v0c0,1.6,0.7,3.5,4,3.5c3.9,0,7.5-3,9.5-4.6c1.2-1.1,2.5-2.4,3.6-3.5
			c-0.6,1.2-0.9,2.3-1,3.3c-0.1,1.5,0.2,2.7,0.9,3.5c0.8,0.9,2.2,1.3,4.1,1.3c3.1-0.1,6.5-1.9,10.2-5.4c-0.3,0.9-0.5,1.9-0.4,2.6
			c0.2,1.7,1.7,2.8,3.9,2.8c3.1,0,5.8-1.8,8.8-4.5c0.7-0.7,1.6-1.4,2.1-1.8c0.7-0.7,1.1-0.9,1.7-1.6c0.5-0.4,0.4-0.8,0.7-2.2
			C-733.6,274-733.6,273.7-733.6,273.7z M-758.2,281.9c-0.5,0-0.8-0.3-0.9-0.8c-0.1-1,1.2-3.8,4.9-8.1c3.3-3.7,8.2-7.4,9.9-7.4
			c0.5,0,0.8,0.1,1,0.4c0.2,0.3,0.4,0.7,0.3,1.2c-0.1,1.6-5.8,7.6-7.9,9.8C-753.2,279.7-756.6,281.9-758.2,281.9z M-804.5,266.3
			c0.3,0,0.4,0.1,0.6,0.2c0.2,0.2,0.2,0.5,0.2,1c-0.2,1.3-1.6,3.8-3.9,5.7c-2.1,1.8-4.3,2.7-5.6,3.1c1-1.8,2.6-4.4,4.1-6.1
			C-806.4,266.8-805,266.3-804.5,266.3z"/>
		<path class="st1" d="M-579.6,291.2l-5,5.3l-0.1,0.1c-0.9,0.9-1.8,1.9-2.8,3.1l-0.3,0.4l0,0c-0.7,0.8-1.4,1.6-2.1,2.4
			c-1.6,1.7-3.1,3.4-4.4,5.2c-1.6,2.1-2.6,3.3-3.4,4.2c-1.1,1.3-1.8,2.1-3.2,4.4c0-0.6-0.2-1.1-0.6-1.5c-0.5-0.6-1.3-1-2.3-1
			c-3.1-0.2-6.6,1.2-9,2.6c-2,1.2-3.6,2.4-4.4,3.1c-0.4,0.3-0.9,0.7-1.4,1.2c-0.2,0.1-0.3,0.3-0.5,0.4l-0.2,0.1
			c-1,1-2.7,2.5-3.9,3.6c-0.8,0.9-2.4,2.2-3.2,2.7c-0.8,0.3-1.4,0.4-1.6,0.2c-0.2-0.2-0.3-0.5,0.2-1.7c0.4-0.7,1-1.6,1.8-2.8
			l0.6-0.9c0.2-0.3,0.4-0.6,0.6-0.9c1.1-1.6,2.3-3.3,2.4-4.8c0.1-0.9-0.1-1.6-0.6-2.1c-0.6-0.6-1.5-0.9-2.8-0.9c-3.4,0-7,2.6-10,5.2
			c-1.9,1.7-3.6,3.3-5.2,4.8c-0.3,0.3-0.6,0.6-1,0.9c0.4-0.6,0.8-1.2,1.2-1.9c0.5-0.8,1.1-1.7,1.6-2.5c0.8-1.3,1.6-2.6,1.6-4
			c0-1.6-1.2-2.6-3.2-2.6c-2.4,0-5.2,2.1-7.2,3.9c-1.4,1.3-3,2.9-3.9,4l-0.5,0.5c-0.8,0.8-1.8,1.7-2.9,2.8c-1.2,1.1-2.4,2.1-3.3,2.6
			c-0.7,0.3-1.3,0.4-1.6,0.2c-0.2-0.2-0.2-0.7,0.1-1.4c0.5-1,1.2-2,1.8-3c0.3-0.5,0.6-1,0.9-1.5c1.6-2.4,2.8-4.1,4.2-6
			c0.3-0.4,0.6-0.9,0.4-1.3c-0.2-0.4-0.9-0.6-2.3-0.5l-0.4,0c-1.3,0-2.3,0-4.4,2.4c0-0.6-0.2-1.2-0.6-1.6c-0.5-0.6-1.3-1-2.3-1
			c-2.5-0.2-5.6,0.6-7.9,1.9c-2,1.1-4,2.5-5.5,3.7c-0.3,0.3-0.7,0.7-1.1,1c-0.5,0.5-1.1,1-1.6,1.5c-0.4,0.4-0.8,1-0.6,1.4
			c0.1,0.1,0.2,0.1,0.3,0.1c0.1,0,0.2,0,0.3-0.1c-0.6,1.2-1,2.3-1.1,3.3c-0.1,1.3,0.2,2.3,0.8,3c0.7,0.8,1.9,1.2,3.7,1.2
			c2.7-0.1,5.7-1.6,8.9-4.6c-0.3,0.7-0.4,1.6-0.3,2.2c0.2,1.5,1.5,2.4,3.4,2.4c2.8,0,5.1-1.6,7.7-3.9c1.3-1.2,3-2.9,4.1-4.1l0.2-0.1
			c1-1.1,2.2-2.2,3.7-3.6l0.5-0.5c0.8-0.7,1.6-1.4,2.4-1.9c0.3-0.2,0.7-0.4,0.8-0.3c0.2,0.2,0,0.7-0.3,1.1c-0.7,1.2-1.3,2.1-1.9,2.9
			c-0.4,0.6-0.8,1.2-1.2,1.9c-1.4,2.2-2.6,4.4-3.4,6.1c-0.2,0.5-0.4,1-0.1,1.4c0.3,0.4,1.1,0.5,2.3,0.4c0.9-0.1,2.6-0.5,3.3-1.1
			l1.3-1.2c2.7-2.3,4.8-4.2,7.7-6.9c2.4-2.2,4.4-3.7,5.8-4.6l0.2-0.1c0.5-0.2,1.4-0.6,1.7-0.4c0.1,0,0.1,0.1,0.1,0.2
			c0,0.2,0,0.4-0.1,0.6l-0.6,0.7c-0.8,1.1-1.8,2.4-2.7,3.7l-0.4,0.5c-1.1,1.6-2.5,3.6-2.7,5.1c-0.1,1,0.1,1.9,0.7,2.5
			c0.6,0.7,1.7,1.1,3.2,1.1c3.4,0,6.4-2.7,7.7-3.8c1-0.8,2.2-2,3.2-3c-0.5,1-0.8,2-0.8,2.8c-0.1,1.3,0.2,2.3,0.8,3
			c0.7,0.8,1.9,1.2,3.7,1.2c3.5-0.1,6.8-2.6,8.9-4.7c-0.3,0.8-0.3,1.6-0.3,2.2c0.1,1.2,1.2,2.4,3.4,2.4c2.8,0,5.1-1.6,7.7-3.9
			c1.5-1.3,3.8-3.7,4.8-4.8c0,0,0.8-0.7,0.8-1.3c0-0.2-0.1-0.3-0.2-0.4c-0.1-0.1-0.2-0.2-0.4-0.2c-0.3,0-0.6,0.3-0.9,0.7l-0.1,0.1
			c-0.3,0.3-0.7,0.6-1.1,1c-0.8,0.7-1.7,1.7-2.8,2.7c-1.2,1.1-2.4,2.1-3.4,2.6c-0.7,0.3-1.4,0.4-1.6,0.2c-0.2-0.2-0.2-0.7,0.1-1.4
			c0.8-1.7,4.8-7.6,6.7-10.4c3-4.4,3.9-5.5,4.9-6.6c0.5-0.6,1.1-1.3,2-2.5c0.4-0.5,0.8-1,1.2-1.5c0.4-0.5,0.9-1,1.3-1.5l6.1-6.8
			l0.1-0.1L-579.6,291.2z M-602.3,316.6c-0.1,1.3-3,5.4-5.5,7.9l0,0c-2.1,2.3-5.1,4.2-6.5,4.2c-0.5,0-0.7-0.2-0.8-0.7
			c-0.1-0.9,1-3.2,4.3-7c3.3-3.7,6-5.8,7.3-5.8c0.4,0,0.7,0.1,0.9,0.3C-602.3,315.8-602.2,316.1-602.3,316.6z M-666.8,324.5
			c-2.1,2.3-5.1,4.2-6.5,4.2c-0.5,0-0.7-0.2-0.8-0.7c-0.1-0.9,1-3.2,4.3-7c3.3-3.7,6-5.8,7.3-5.8c0.4,0,0.7,0.1,0.9,0.3
			c0.2,0.2,0.3,0.6,0.3,1C-661.4,317.9-664.3,322-666.8,324.5L-666.8,324.5z"/>
		<path class="st1" d="M-879.3,331.3v-24.9h18.2v4.2H-874v5.9h11.1v4.2H-874v10.6H-879.3z"/>
		<path class="st1" d="M-847.8,331.3v-24.7h5.3v20.5h13.3v4.2H-847.8z"/>
		<path class="st1" d="M-817.5,319c0-2.5,0.4-4.7,1.2-6.4c0.6-1.3,1.4-2.4,2.5-3.4c1-1,2.2-1.8,3.4-2.2c1.6-0.7,3.6-1,5.7-1
			c3.9,0,7,1.1,9.4,3.4c2.3,2.3,3.5,5.4,3.5,9.5c0,4-1.2,7.2-3.5,9.4c-2.3,2.3-5.4,3.4-9.3,3.4c-3.9,0-7.1-1.1-9.4-3.4
			C-816.4,326.1-817.5,323-817.5,319z M-812,318.8c0,2.8,0.7,5,2.1,6.4c1.4,1.5,3.1,2.2,5.3,2.2c2.1,0,3.9-0.7,5.2-2.2
			c1.4-1.4,2.1-3.6,2.1-6.5c0-2.9-0.7-5-2-6.4c-1.3-1.4-3.1-2.1-5.3-2.1c-2.2,0-4,0.7-5.3,2.1C-811.3,313.8-812,316-812,318.8z"/>
		<path class="st1" d="M-779.9,319c0-2.5,0.4-4.7,1.2-6.4c0.6-1.3,1.4-2.4,2.5-3.4c1-1,2.2-1.8,3.4-2.2c1.6-0.7,3.6-1,5.7-1
			c3.9,0,7,1.1,9.4,3.4c2.3,2.3,3.5,5.4,3.5,9.5c0,4-1.2,7.2-3.5,9.4c-2.3,2.3-5.4,3.4-9.3,3.4c-3.9,0-7.1-1.1-9.4-3.4
			C-778.7,326.1-779.9,323-779.9,319z M-774.4,318.8c0,2.8,0.7,5,2.1,6.4c1.4,1.5,3.1,2.2,5.3,2.2c2.1,0,3.9-0.7,5.2-2.2
			c1.4-1.4,2.1-3.6,2.1-6.5c0-2.9-0.7-5-2-6.4c-1.3-1.4-3.1-2.1-5.3-2.1c-2.2,0-4,0.7-5.3,2.1C-773.7,313.8-774.4,316-774.4,318.8z"
			/>
		<path class="st1" d="M-741.1,331.3v-24.9h11.3c2.8,0,4.9,0.2,6.2,0.7c1.3,0.4,2.3,1.2,3.1,2.4s1.2,2.5,1.2,3.9
			c0,1.9-0.6,3.4-1.8,4.6c-1.2,1.2-2.9,2-5.2,2.3c1.2,0.6,2.1,1.3,2.9,2.1c0.8,0.8,1.8,2.1,3,4l3.2,4.9h-6.4l-3.9-5.4
			c-1.4-1.9-2.3-3.2-2.8-3.7c-0.5-0.5-1-0.8-1.6-1c-0.6-0.2-1.5-0.3-2.7-0.3h-1.1v10.4H-741.1z M-735.8,316.9h4
			c2.6,0,4.2-0.1,4.8-0.3c0.6-0.2,1.1-0.6,1.5-1.1c0.4-0.5,0.5-1.1,0.5-1.9c0-0.8-0.2-1.5-0.7-2c-0.5-0.5-1.1-0.8-2-1
			c-0.4-0.1-1.7-0.1-3.9-0.1h-4.2V316.9z"/>
		<path class="st1" d="M-706.9,323.2l5.2-0.5c0.3,1.6,0.9,2.9,1.9,3.6c1,0.8,2.2,1.2,3.9,1.2c1.7,0,3-0.3,3.9-1
			c0.9-0.7,1.3-1.5,1.3-2.4c0-0.6-0.2-1.1-0.6-1.5c-0.4-0.4-1-0.8-1.9-1.1c-0.6-0.2-2.1-0.6-4.3-1.1c-2.9-0.7-4.9-1.5-6-2.5
			c-1.6-1.4-2.4-3-2.4-5c0-1.3,0.4-2.5,1.1-3.6c0.8-1.1,1.9-1.9,3.3-2.5c1.4-0.6,3.2-0.9,5.2-0.9c3.3,0,5.8,0.7,7.5,2.1
			s2.6,3.2,2.6,5.5l-5.3,0.2c-0.2-1.3-0.7-2.2-1.5-2.8c-0.8-0.6-1.9-0.8-3.4-0.8c-1.6,0-2.8,0.3-3.6,0.9c-0.6,0.4-0.8,0.9-0.8,1.5
			c0,0.6,0.3,1.1,0.8,1.5c0.7,0.5,2.3,1.1,4.9,1.7c2.6,0.6,4.5,1.2,5.8,1.8c1.2,0.6,2.2,1.5,2.9,2.5c0.7,1.1,1.1,2.4,1.1,4
			c0,1.4-0.4,2.8-1.3,4c-0.8,1.2-2,2.2-3.6,2.8c-1.5,0.6-3.5,0.9-5.8,0.9c-3.3,0-5.9-0.7-7.7-2.2
			C-705.5,328.1-706.5,326-706.9,323.2z"/>
		<path class="st1" d="M-582.7,323.2l5.2-0.5c0.3,1.6,0.9,2.9,1.9,3.6c1,0.8,2.2,1.2,3.9,1.2c1.7,0,3-0.3,3.9-1
			c0.9-0.7,1.3-1.5,1.3-2.4c0-0.6-0.2-1.1-0.6-1.5c-0.4-0.4-1-0.8-1.9-1.1c-0.6-0.2-2.1-0.6-4.3-1.1c-2.9-0.7-4.9-1.5-6-2.5
			c-1.6-1.4-2.4-3-2.4-5c0-1.3,0.4-2.5,1.1-3.6c0.8-1.1,1.9-1.9,3.3-2.5c1.4-0.6,3.2-0.9,5.2-0.9c3.3,0,5.8,0.7,7.5,2.1
			c1.7,1.4,2.6,3.2,2.6,5.5l-5.3,0.2c-0.2-1.3-0.7-2.2-1.5-2.8c-0.8-0.6-1.9-0.8-3.4-0.8c-1.6,0-2.8,0.3-3.6,0.9
			c-0.6,0.4-0.8,0.9-0.8,1.5c0,0.6,0.3,1.1,0.8,1.5c0.7,0.5,2.3,1.1,4.9,1.7c2.6,0.6,4.5,1.2,5.8,1.8c1.2,0.6,2.2,1.5,2.9,2.5
			c0.7,1.1,1.1,2.4,1.1,4c0,1.4-0.4,2.8-1.3,4c-0.8,1.2-2,2.2-3.6,2.8c-1.5,0.6-3.5,0.9-5.8,0.9c-3.3,0-5.9-0.7-7.7-2.2
			C-581.3,328.1-582.4,326-582.7,323.2z"/>
		<path class="st1" d="M-543.3,331.3v-20.7h-7.9v-4.2h21v4.2h-7.8v20.7H-543.3z"/>
		<path class="st1" d="M-493,331.3h-5.8l-2.3-5.7h-10.6l-2.2,5.7h-5.7l10.3-24.9h5.7L-493,331.3z M-502.8,321.4l-3.6-9.2l-3.6,9.2
			H-502.8z"/>
		<path class="st1" d="M-480.7,331.3v-24.9h5.3v24.9H-480.7z"/>
		<path class="st1" d="M-460.6,331.3v-24.9h11.3c2.8,0,4.9,0.2,6.2,0.7c1.3,0.4,2.3,1.2,3.1,2.4c0.8,1.1,1.2,2.5,1.2,3.9
			c0,1.9-0.6,3.4-1.8,4.6c-1.2,1.2-2.9,2-5.2,2.3c1.2,0.6,2.1,1.3,2.9,2.1c0.8,0.8,1.8,2.1,3,4l3.2,4.9h-6.4l-3.9-5.4
			c-1.4-1.9-2.3-3.2-2.8-3.7c-0.5-0.5-1-0.8-1.6-1c-0.6-0.2-1.5-0.3-2.7-0.3h-1.1v10.4H-460.6z M-455.3,316.9h4
			c2.6,0,4.2-0.1,4.8-0.3c0.6-0.2,1.1-0.6,1.5-1.1c0.4-0.5,0.5-1.1,0.5-1.9c0-0.8-0.2-1.5-0.7-2c-0.5-0.5-1.1-0.8-2-1
			c-0.4-0.1-1.7-0.1-3.9-0.1h-4.2V316.9z"/>
		<path class="st1" d="M-427.1,323.2l5.2-0.5c0.3,1.6,0.9,2.9,1.9,3.6c1,0.8,2.2,1.2,3.9,1.2c1.7,0,3-0.3,3.9-1
			c0.9-0.7,1.3-1.5,1.3-2.4c0-0.6-0.2-1.1-0.6-1.5c-0.4-0.4-1-0.8-1.9-1.1c-0.6-0.2-2.1-0.6-4.3-1.1c-2.9-0.7-4.9-1.5-6-2.5
			c-1.6-1.4-2.4-3-2.4-5c0-1.3,0.4-2.5,1.1-3.6c0.8-1.1,1.9-1.9,3.3-2.5c1.4-0.6,3.2-0.9,5.2-0.9c3.3,0,5.8,0.7,7.5,2.1
			c1.7,1.4,2.6,3.2,2.6,5.5l-5.3,0.2c-0.2-1.3-0.7-2.2-1.5-2.8c-0.8-0.6-1.9-0.8-3.4-0.8c-1.6,0-2.8,0.3-3.6,0.9
			c-0.6,0.4-0.8,0.9-0.8,1.5c0,0.6,0.3,1.1,0.8,1.5c0.7,0.5,2.3,1.1,4.9,1.7c2.6,0.6,4.5,1.2,5.8,1.8c1.2,0.6,2.2,1.5,2.9,2.5
			c0.7,1.1,1.1,2.4,1.1,4c0,1.4-0.4,2.8-1.3,4c-0.8,1.2-2,2.2-3.6,2.8c-1.5,0.6-3.5,0.9-5.8,0.9c-3.3,0-5.9-0.7-7.7-2.2
			C-425.7,328.1-426.8,326-427.1,323.2z"/>
		<path class="st1" d="M-401.9,331.3v-4.8h5.1v4.8H-401.9z"/>
		<path class="st1" d="M-374.9,318.6l-5,0.8c-0.2-0.9-0.6-1.6-1.1-2.1c-0.6-0.5-1.4-0.7-2.3-0.7c-1.3,0-2.3,0.4-3,1.2
			c-0.8,0.8-1.1,2.2-1.1,4.1c0,2.1,0.4,3.7,1.1,4.5c0.8,0.9,1.8,1.3,3.1,1.3c1,0,1.8-0.3,2.4-0.8c0.6-0.5,1-1.4,1.3-2.7l5,0.8
			c-0.5,2.2-1.5,3.8-3,4.9c-1.5,1.1-3.4,1.6-5.9,1.6c-2.8,0-5-0.8-6.7-2.5c-1.7-1.7-2.5-4-2.5-6.9c0-3,0.8-5.3,2.5-7
			c1.7-1.7,3.9-2.5,6.8-2.5c2.3,0,4.2,0.5,5.6,1.4C-376.5,315.2-375.5,316.6-374.9,318.6z"/>
		<path class="st1" d="M-372.9,322c0-1.6,0.4-3.1,1.2-4.6c0.8-1.5,2-2.6,3.5-3.4c1.5-0.8,3.2-1.2,5.1-1.2c2.9,0,5.3,0.9,7.1,2.7
			c1.9,1.8,2.8,4,2.8,6.7c0,2.7-0.9,5-2.8,6.8c-1.9,1.8-4.2,2.7-7.1,2.7c-1.8,0-3.4-0.4-5-1.1c-1.6-0.7-2.8-1.8-3.6-3.3
			C-372.5,325.9-372.9,324.1-372.9,322z M-367.7,322.3c0,1.8,0.5,3.2,1.4,4.1c0.9,1,2,1.4,3.3,1.4c1.3,0,2.4-0.5,3.3-1.4
			c0.9-1,1.3-2.3,1.3-4.1c0-1.8-0.4-3.1-1.3-4.1c-0.9-1-2-1.4-3.3-1.4c-1.3,0-2.4,0.5-3.3,1.4C-367.3,319.1-367.7,320.5-367.7,322.3
			z"/>
		<path class="st1" d="M-350.3,313.2h4.7v2.5c1.7-1.9,3.7-2.9,6-2.9c1.2,0,2.3,0.2,3.2,0.7c0.9,0.5,1.6,1.2,2.2,2.2
			c0.8-1,1.8-1.7,2.7-2.2c1-0.5,2-0.7,3.1-0.7c1.4,0,2.6,0.3,3.6,0.8c1,0.5,1.7,1.3,2.2,2.4c0.3,0.8,0.5,2,0.5,3.7v11.5h-5.1V321
			c0-1.8-0.2-2.9-0.5-3.5c-0.5-0.7-1.2-1-2.2-1c-0.7,0-1.4,0.2-2,0.6c-0.6,0.4-1.1,1-1.4,1.8c-0.3,0.8-0.4,2-0.4,3.7v8.7h-5.1v-9.9
			c0-1.8-0.1-2.9-0.3-3.4c-0.2-0.5-0.5-0.9-0.8-1.1c-0.4-0.2-0.9-0.4-1.5-0.4c-0.8,0-1.5,0.2-2.1,0.6c-0.6,0.4-1.1,1-1.3,1.7
			c-0.3,0.7-0.4,2-0.4,3.7v8.8h-5.1V313.2z"/>
		<rect x="-885" y="341.9" class="st1" width="121.8" height="25.3"/>
		<rect x="-438.2" y="371.4" class="st1" width="121.8" height="25.3"/>
		<rect x="-755.3" y="341.9" class="st1" width="433.6" height="25.3"/>
		<rect x="-884.4" y="371.4" class="st1" width="439.4" height="25.3"/>
		<rect x="-439.3" y="371.4" class="st1" width="122.8" height="25.3"/>
		<path class="st1" d="M-875.4,228.6l144.1-34.4l-5.6-5.6l0.8-6.9l-140,38.1l-7.5,1.8c-2,0.5-3.2,2.5-2.7,4.5l0.3,1.2
			c0.4,1.8,2.2,3,4,2.8l0,0l0.3-0.1c0.1,0,0.1,0,0.2,0L-875.4,228.6z"/>
		<path class="st1" d="M-329.5,236.5l-3.5-0.6l-261.5-51.5l-0.8-12.6l6.5-2.5c0,0,4-1.2,0.6-3.4l-86.6-37.1l-72.9,27.9l7.9,3.8
			l-3.9,11l67.5-25.2l59,16.2l7.6,40.3l273.9,39l5.1,0.9c1.7,0.3,3.3-0.9,3.6-2.5l0-0.2C-326.7,238.4-327.8,236.8-329.5,236.5z"/>
	</g>
	<g>
		<g>
			<g>
				<path class="st2" d="M-831.3,255.9c6.3-0.9,12.5-4.4,13.5-9.9c0.7-4.3-2-7.7-7.5-9.3c2.4-2.1,4.8-3.8,7.4-4.9
					c2.8-1.3,6.3-2.1,9.6-2.1c2.8,0,5.1,0.8,6.2,2.2c0.1,0.1,0.1,0.2,0.2,0.3c0.1,0.2,0.3,0.5,0.7,0.3c0.2-0.1,0.3-0.2,0.4-0.3
					c0.1-0.2,0-0.6-0.2-1c-1-1.8-3.9-3-7.3-3c-3.5,0-7.5,0.8-10.8,2c-2.2,0.8-6.8,3-10.8,5.6c-0.4,0-0.7,0-1.1-0.1
					c-0.4,0-0.8-0.1-1.2-0.1c0,0,0,0,0,0c-12.3-0.3-27.7,4.9-39.3,13.3c-11.6,8.5-17.9,17.9-16.7,25.2c1.1,6.6,6.8,7.4,11.8,7.4
					c10.9,0,24.7-9.6,35.1-24.5c0.3-0.4,0.5-0.8,0.8-1.1c0,0.2,0.1,0.3,0.2,0.4c0.3,0.5,1.2,0.7,2.4,0.7c0.9,0,1.8-0.2,2.4-0.4
					c0.9-0.1,2.9,0.4,4.3,1.7c1.3,1.2,1.9,2.8,1.8,4.7c-0.4,8.6-8.4,16-14.7,16c-1.1,0-2.5-0.3-3.1-1.1c-0.2-0.3-0.3-0.6-0.3-1
					c0.1-0.9,0.9-1.3,1.8-1.7c0.2-0.1,0.5-0.3,0.7-0.4c1.4-0.7,3-1.9,3.1-3.9c0.1-0.9-0.2-1.7-0.7-2.3c-0.6-0.7-1.7-1.1-2.9-1.1
					c-3.5,0-6.7,2.6-7.3,6.1l0,0c-0.3,1.7,0.1,3.1,1.1,4.2c1.4,1.6,4.1,2.6,7.5,2.6c12.2,0,22.1-6.8,22.5-15.4
					C-821.5,260.5-825.3,256.9-831.3,255.9z M-833.4,237.3c0.2,0,0.4,0,0.7,0c0.3,0,0.5,0,0.7,0c-0.7,0.5-1.5,1.1-2.2,1.7
					c-5,4.2-12.6,11.9-19,20.7l-1.4,1.9c-7.1,9.9-13.2,18.5-21.6,18.5c-3.5,0-5.8-2.8-5.8-7c0-5.5,3.6-14.5,13.9-23
					C-858.1,241.7-843,237.3-833.4,237.3z M-828.2,239.4c0.3-0.3,0.6-0.5,0.9-0.8c2.3,1.5,3.3,4.2,2.5,7.1
					c-1.3,4.5-5.9,8.8-10.2,9.5c-0.7-0.2-1.7-0.4-2.9-0.4c-0.9,0-1.6,0.1-2,0.3c0.6-0.9,1.2-1.7,1.7-2.5c3.5-5.1,6.3-9.2,9-12.2
					C-828.9,240-828.5,239.7-828.2,239.4z"/>
				<path class="st2" d="M-733.6,270.1c-0.3,0.1-0.9,0.5-1.3,1l-0.4,0.4c-0.7,0.7-0.9,0.8-2.5,2.3c-1.4,1.3-2.8,2.4-3.8,3
					c-0.8,0.4-1.6,0.5-1.9,0.3c-0.3-0.3-0.2-0.8,0.1-1.7c0.6-1.1,1.3-2.3,2.1-3.4c0.3-0.5,0.7-1.1,1.1-1.7c1-1.5,2.4-3,3.8-4.4
					c1.1-1.1,2-2.1,2.8-3.1c0.6-0.9,0.8-1.6,0.5-2.2c-0.3-0.6-1.1-1.1-2.3-0.8c-1.4,0.3-3.4,1-6,3.6c0-0.7-0.2-1.4-0.7-2
					c-0.6-0.7-1.4-1.1-2.5-1.2c-3-0.2-8.1,1.3-10.6,2.9c-2.2,1.3-4.5,2.9-6.2,4.2c-0.4,0.4-0.8,0.8-1.2,1.2
					c-0.6,0.6-1.2,1.1-1.8,1.8c-0.1,0.1-0.2,0.2-0.2,0.3c-1,1-2.2,2.3-3.3,3.2c-1.7,1.4-3.1,2.5-4.3,3.2c-0.6,0.3-1.3,0.4-1.6,0.2
					c-0.4-0.2-0.3-1-0.1-1.7c0.4-1.7,4.8-6.9,9.3-12.3c3.7-4.4,7.4-8.9,10.1-12.6c3.1-4.3,9.5-11.7,12.6-15.2
					c0.6-0.7,1.1-1.3,1.4-1.6l0.1-0.1l-0.1-0.2c-0.2-0.5-1.1-1.2-2.9-1.2c-1.7,0-3.9,0.3-5.1,1.7c-2,2.1-3.8,4.2-5.7,6.4
					c-1.9,2.2-3.9,4.4-6.1,6.8c-0.9,0.9-1.9,2-3,3.1c-4.4,4.6-9.8,10.3-11.6,13.1c-2.2,2.2-4,4.1-5.8,5.9l-0.3,0.3c0,0,0,0,0,0
					l-0.4,0.4c-1.1,1.2-2.6,2.7-3.9,3.8c-1.7,1.4-3.1,2.5-4.3,3.2c-0.6,0.3-1.3,0.4-1.6,0.2c-0.4-0.2-0.3-1-0.1-1.7
					c0.4-1.7,4.8-6.9,9.3-12.3c3.7-4.4,7.4-8.9,10.1-12.6c3.6-5.2,11.6-15.3,13.5-17.4l0.1-0.1l-0.1-0.2c-0.2-0.5-1.1-1.2-2.9-1.2
					c-1.7,0-3.2,0.8-4.4,2.2c-1.5,1.5-2.8,2.8-4.2,4.1c-2.4,2.3-4.9,4.7-8.1,8.5c-1.5,1.8-3.4,3.9-5.4,6.2
					c-3.6,4.1-7.4,8.3-8.8,10.5c-2.2,2.2-4,4-5.7,5.8l-0.3,0.4l0,0c-1.3,1.4-3.8,3.7-5.7,5.1c-3,2.2-6.4,3.6-8.6,3.5
					c-1.3,0-1.9-0.7-1.9-2.1c0-0.6,0.2-1.2,0.5-1.8c2.6-0.7,6.3-1.9,8.9-3.2c2.7-1.5,5.9-3.7,6.1-6.7l0,0c0-0.8-0.2-1.6-0.8-2.1
					c-0.7-0.8-1.9-1.2-3.5-1.2c-3.1,0-6.5,1.1-10.1,3.3c-1.4,0.8-2.7,1.8-3.7,2.6c-0.3,0.3-0.6,0.5-0.9,0.7
					c-0.3,0.2-0.5,0.5-0.8,0.7c-0.7,0.6-1.5,1.4-2.2,2.1c-0.4,0.5-0.9,1.1-0.6,1.6c0.1,0.1,0.2,0.1,0.3,0.1c0.1,0,0.3,0,0.6-0.2
					c-0.8,1.4-1.1,2.7-1.1,4c0,1.3,0.4,2.4,1.2,3.2c1.1,1.1,2.8,1.6,5.2,1.6c0.2,0,0.5,0,0.7,0c3.5-0.1,8-1.9,11.5-4.7
					c2.3-1.7,4.2-3.7,5.3-5c0.1-0.1,0.2-0.2,0.3-0.3c0.3-0.3,0.7-0.7,1.1-1.2c0.3-0.3,0.6-0.6,0.9-0.9c-1.8,2.9-3.4,6.2-3.5,8.5v0
					c0,1.6,0.7,3.5,4,3.5c3.9,0,7.5-3,9.5-4.6c1.9-1.7,4.2-4,5.3-5.3c0,0,0,0,0,0c0.3-0.3,0.7-0.7,1.1-1.2c0.3-0.3,0.6-0.6,0.9-0.9
					c-1.8,2.9-3.4,6.2-3.5,8.5v0c0,1.6,0.7,3.5,4,3.5c3.9,0,7.5-3,9.5-4.6c1.2-1.1,2.5-2.4,3.6-3.5c-0.6,1.2-0.9,2.3-1,3.3
					c-0.1,1.5,0.2,2.7,0.9,3.5c0.8,0.9,2.2,1.3,4.1,1.3c3.1-0.1,6.5-1.9,10.2-5.4c-0.3,0.9-0.5,1.9-0.4,2.6c0.2,1.7,1.7,2.8,3.9,2.8
					c3.1,0,5.8-1.8,8.8-4.5c0.7-0.7,1.6-1.4,2.1-1.8c0.7-0.7,1.1-0.9,1.7-1.6c0.5-0.4,0.4-0.8,0.7-2.2
					C-733.6,270.4-733.6,270.1-733.6,270.1z M-758.2,278.3c-0.5,0-0.8-0.3-0.9-0.8c-0.1-1,1.2-3.8,4.9-8.1c3.3-3.7,8.2-7.4,9.9-7.4
					c0.5,0,0.8,0.1,1,0.4c0.2,0.3,0.4,0.7,0.3,1.2c-0.1,1.6-5.8,7.6-7.9,9.8C-753.2,276.1-756.6,278.3-758.2,278.3z M-804.5,262.7
					c0.3,0,0.4,0.1,0.6,0.2c0.2,0.2,0.2,0.5,0.2,1c-0.2,1.3-1.6,3.8-3.9,5.7c-2.1,1.8-4.3,2.7-5.6,3.1c1-1.8,2.6-4.4,4.1-6.1
					C-806.4,263.2-805,262.7-804.5,262.7z"/>
			</g>
			<path class="st2" d="M-579.6,287.6l-5,5.3l-0.1,0.1c-0.9,0.9-1.8,1.9-2.8,3.1l-0.3,0.4l0,0c-0.7,0.8-1.4,1.6-2.1,2.4
				c-1.6,1.7-3.1,3.4-4.4,5.2c-1.6,2.1-2.6,3.3-3.4,4.2c-1.1,1.3-1.8,2.1-3.2,4.4c0-0.6-0.2-1.1-0.6-1.5c-0.5-0.6-1.3-1-2.3-1
				c-3.1-0.2-6.6,1.2-9,2.6c-2,1.2-3.6,2.4-4.4,3.1c-0.4,0.3-0.9,0.7-1.4,1.2c-0.2,0.1-0.3,0.3-0.5,0.4l-0.2,0.1
				c-1,1-2.7,2.5-3.9,3.6c-0.8,0.9-2.4,2.2-3.2,2.7c-0.8,0.3-1.4,0.4-1.6,0.2c-0.2-0.2-0.3-0.5,0.2-1.7c0.4-0.7,1-1.6,1.8-2.8
				l0.6-0.9c0.2-0.3,0.4-0.6,0.6-0.9c1.1-1.6,2.3-3.3,2.4-4.8c0.1-0.9-0.1-1.6-0.6-2.1c-0.6-0.6-1.5-0.9-2.8-0.9
				c-3.4,0-7,2.6-10,5.2c-1.9,1.7-3.6,3.3-5.2,4.8c-0.3,0.3-0.6,0.6-1,0.9c0.4-0.6,0.8-1.2,1.2-1.9c0.5-0.8,1.1-1.7,1.6-2.5
				c0.8-1.3,1.6-2.6,1.6-4c0-1.6-1.2-2.6-3.2-2.6c-2.4,0-5.2,2.1-7.2,3.9c-1.4,1.3-3,2.9-3.9,4l-0.5,0.5c-0.8,0.8-1.8,1.7-2.9,2.8
				c-1.2,1.1-2.4,2.1-3.3,2.6c-0.7,0.3-1.3,0.4-1.6,0.2c-0.2-0.2-0.2-0.7,0.1-1.4c0.5-1,1.2-2,1.8-3c0.3-0.5,0.6-1,0.9-1.5
				c1.6-2.4,2.8-4.1,4.2-6c0.3-0.4,0.6-0.9,0.4-1.3c-0.2-0.4-0.9-0.6-2.3-0.5l-0.4,0c-1.3,0-2.3,0-4.4,2.4c0-0.6-0.2-1.2-0.6-1.6
				c-0.5-0.6-1.3-1-2.3-1c-2.5-0.2-5.6,0.6-7.9,1.9c-2,1.1-4,2.5-5.5,3.7c-0.3,0.3-0.7,0.7-1.1,1c-0.5,0.5-1.1,1-1.6,1.5
				c-0.4,0.4-0.8,1-0.6,1.4c0.1,0.1,0.2,0.1,0.3,0.1c0.1,0,0.2,0,0.3-0.1c-0.6,1.2-1,2.3-1.1,3.3c-0.1,1.3,0.2,2.3,0.8,3
				c0.7,0.8,1.9,1.2,3.7,1.2c2.7-0.1,5.7-1.6,8.9-4.6c-0.3,0.7-0.4,1.6-0.3,2.2c0.2,1.5,1.5,2.4,3.4,2.4c2.8,0,5.1-1.6,7.7-3.9
				c1.3-1.2,3-2.9,4.1-4.1l0.2-0.1c1-1.1,2.2-2.2,3.7-3.6l0.5-0.5c0.8-0.7,1.6-1.4,2.4-1.9c0.3-0.2,0.7-0.4,0.8-0.3
				c0.2,0.2,0,0.7-0.3,1.1c-0.7,1.2-1.3,2.1-1.9,2.9c-0.4,0.6-0.8,1.2-1.2,1.9c-1.4,2.2-2.6,4.4-3.4,6.1c-0.2,0.5-0.4,1-0.1,1.4
				c0.3,0.4,1.1,0.5,2.3,0.4c0.9-0.1,2.6-0.5,3.3-1.1l1.3-1.2c2.7-2.3,4.8-4.2,7.7-6.9c2.4-2.2,4.4-3.7,5.8-4.6l0.2-0.1
				c0.5-0.2,1.4-0.6,1.7-0.4c0.1,0,0.1,0.1,0.1,0.2c0,0.2,0,0.4-0.1,0.6l-0.6,0.7c-0.8,1.1-1.8,2.4-2.7,3.7l-0.4,0.5
				c-1.1,1.6-2.5,3.6-2.7,5.1c-0.1,1,0.1,1.9,0.7,2.5c0.6,0.7,1.7,1.1,3.2,1.1c3.4,0,6.4-2.7,7.7-3.8c1-0.8,2.2-2,3.2-3
				c-0.5,1-0.8,2-0.8,2.8c-0.1,1.3,0.2,2.3,0.8,3c0.7,0.8,1.9,1.2,3.7,1.2c3.5-0.1,6.8-2.6,8.9-4.7c-0.3,0.8-0.3,1.6-0.3,2.2
				c0.1,1.2,1.2,2.4,3.4,2.4c2.8,0,5.1-1.6,7.7-3.9c1.5-1.3,3.8-3.7,4.8-4.8c0,0,0.8-0.7,0.8-1.3c0-0.2-0.1-0.3-0.2-0.4
				c-0.1-0.1-0.2-0.2-0.4-0.2c-0.3,0-0.6,0.3-0.9,0.7l-0.1,0.1c-0.3,0.3-0.7,0.6-1.1,1c-0.8,0.7-1.7,1.7-2.8,2.7
				c-1.2,1.1-2.4,2.1-3.4,2.6c-0.7,0.3-1.4,0.4-1.6,0.2c-0.2-0.2-0.2-0.7,0.1-1.4c0.8-1.7,4.8-7.6,6.7-10.4c3-4.4,3.9-5.5,4.9-6.6
				c0.5-0.6,1.1-1.3,2-2.5c0.4-0.5,0.8-1,1.2-1.5c0.4-0.5,0.9-1,1.3-1.5l6.1-6.8l0.1-0.1L-579.6,287.6z M-602.3,313
				c-0.1,1.3-3,5.4-5.5,7.9l0,0c-2.1,2.3-5.1,4.2-6.5,4.2c-0.5,0-0.7-0.2-0.8-0.7c-0.1-0.9,1-3.2,4.3-7c3.3-3.7,6-5.8,7.3-5.8
				c0.4,0,0.7,0.1,0.9,0.3C-602.3,312.2-602.2,312.5-602.3,313z M-666.8,320.9c-2.1,2.3-5.1,4.2-6.5,4.2c-0.5,0-0.7-0.2-0.8-0.7
				c-0.1-0.9,1-3.2,4.3-7c3.3-3.7,6-5.8,7.3-5.8c0.4,0,0.7,0.1,0.9,0.3c0.2,0.2,0.3,0.6,0.3,1C-661.4,314.3-664.3,318.4-666.8,320.9
				L-666.8,320.9z"/>
			<g>
				<path class="st3" d="M-879.3,327.7v-24.9h18.2v4.2H-874v5.9h11.1v4.2H-874v10.6H-879.3z"/>
				<path class="st3" d="M-847.8,327.7V303h5.3v20.5h13.3v4.2H-847.8z"/>
				<path class="st3" d="M-817.5,315.4c0-2.5,0.4-4.7,1.2-6.4c0.6-1.3,1.4-2.4,2.5-3.4c1-1,2.2-1.8,3.4-2.2c1.6-0.7,3.6-1,5.7-1
					c3.9,0,7,1.1,9.4,3.4c2.3,2.3,3.5,5.4,3.5,9.5c0,4-1.2,7.2-3.5,9.4c-2.3,2.3-5.4,3.4-9.3,3.4c-3.9,0-7.1-1.1-9.4-3.4
					C-816.4,322.5-817.5,319.4-817.5,315.4z M-812,315.2c0,2.8,0.7,5,2.1,6.4c1.4,1.5,3.1,2.2,5.3,2.2c2.1,0,3.9-0.7,5.2-2.2
					c1.4-1.4,2.1-3.6,2.1-6.5c0-2.9-0.7-5-2-6.4c-1.3-1.4-3.1-2.1-5.3-2.1c-2.2,0-4,0.7-5.3,2.1C-811.3,310.2-812,312.4-812,315.2z"
					/>
				<path class="st3" d="M-779.9,315.4c0-2.5,0.4-4.7,1.2-6.4c0.6-1.3,1.4-2.4,2.5-3.4c1-1,2.2-1.8,3.4-2.2c1.6-0.7,3.6-1,5.7-1
					c3.9,0,7,1.1,9.4,3.4c2.3,2.3,3.5,5.4,3.5,9.5c0,4-1.2,7.2-3.5,9.4c-2.3,2.3-5.4,3.4-9.3,3.4c-3.9,0-7.1-1.1-9.4-3.4
					C-778.7,322.5-779.9,319.4-779.9,315.4z M-774.4,315.2c0,2.8,0.7,5,2.1,6.4c1.4,1.5,3.1,2.2,5.3,2.2c2.1,0,3.9-0.7,5.2-2.2
					c1.4-1.4,2.1-3.6,2.1-6.5c0-2.9-0.7-5-2-6.4c-1.3-1.4-3.1-2.1-5.3-2.1c-2.2,0-4,0.7-5.3,2.1
					C-773.7,310.2-774.4,312.4-774.4,315.2z"/>
				<path class="st3" d="M-741.1,327.7v-24.9h11.3c2.8,0,4.9,0.2,6.2,0.7c1.3,0.4,2.3,1.2,3.1,2.4s1.2,2.5,1.2,3.9
					c0,1.9-0.6,3.4-1.8,4.6c-1.2,1.2-2.9,2-5.2,2.3c1.2,0.6,2.1,1.3,2.9,2.1c0.8,0.8,1.8,2.1,3,4l3.2,4.9h-6.4l-3.9-5.4
					c-1.4-1.9-2.3-3.2-2.8-3.7c-0.5-0.5-1-0.8-1.6-1c-0.6-0.2-1.5-0.3-2.7-0.3h-1.1v10.4H-741.1z M-735.8,313.3h4
					c2.6,0,4.2-0.1,4.8-0.3c0.6-0.2,1.1-0.6,1.5-1.1c0.4-0.5,0.5-1.1,0.5-1.9c0-0.8-0.2-1.5-0.7-2c-0.5-0.5-1.1-0.8-2-1
					c-0.4-0.1-1.7-0.1-3.9-0.1h-4.2V313.3z"/>
				<path class="st3" d="M-706.9,319.6l5.2-0.5c0.3,1.6,0.9,2.9,1.9,3.6c1,0.8,2.2,1.2,3.9,1.2c1.7,0,3-0.3,3.9-1
					c0.9-0.7,1.3-1.5,1.3-2.4c0-0.6-0.2-1.1-0.6-1.5c-0.4-0.4-1-0.8-1.9-1.1c-0.6-0.2-2.1-0.6-4.3-1.1c-2.9-0.7-4.9-1.5-6-2.5
					c-1.6-1.4-2.4-3-2.4-5c0-1.3,0.4-2.5,1.1-3.6c0.8-1.1,1.9-1.9,3.3-2.5c1.4-0.6,3.2-0.9,5.2-0.9c3.3,0,5.8,0.7,7.5,2.1
					s2.6,3.2,2.6,5.5l-5.3,0.2c-0.2-1.3-0.7-2.2-1.5-2.8c-0.8-0.6-1.9-0.8-3.4-0.8c-1.6,0-2.8,0.3-3.6,0.9c-0.6,0.4-0.8,0.9-0.8,1.5
					c0,0.6,0.3,1.1,0.8,1.5c0.7,0.5,2.3,1.1,4.9,1.7c2.6,0.6,4.5,1.2,5.8,1.8c1.2,0.6,2.2,1.5,2.9,2.5c0.7,1.1,1.1,2.4,1.1,4
					c0,1.4-0.4,2.8-1.3,4c-0.8,1.2-2,2.2-3.6,2.8c-1.5,0.6-3.5,0.9-5.8,0.9c-3.3,0-5.9-0.7-7.7-2.2
					C-705.5,324.5-706.5,322.4-706.9,319.6z"/>
			</g>
			<g>
				<g>
					<path class="st3" d="M-582.7,319.6l5.2-0.5c0.3,1.6,0.9,2.9,1.9,3.6c1,0.8,2.2,1.2,3.9,1.2c1.7,0,3-0.3,3.9-1
						c0.9-0.7,1.3-1.5,1.3-2.4c0-0.6-0.2-1.1-0.6-1.5c-0.4-0.4-1-0.8-1.9-1.1c-0.6-0.2-2.1-0.6-4.3-1.1c-2.9-0.7-4.9-1.5-6-2.5
						c-1.6-1.4-2.4-3-2.4-5c0-1.3,0.4-2.5,1.1-3.6c0.8-1.1,1.9-1.9,3.3-2.5c1.4-0.6,3.2-0.9,5.2-0.9c3.3,0,5.8,0.7,7.5,2.1
						c1.7,1.4,2.6,3.2,2.6,5.5l-5.3,0.2c-0.2-1.3-0.7-2.2-1.5-2.8c-0.8-0.6-1.9-0.8-3.4-0.8c-1.6,0-2.8,0.3-3.6,0.9
						c-0.6,0.4-0.8,0.9-0.8,1.5c0,0.6,0.3,1.1,0.8,1.5c0.7,0.5,2.3,1.1,4.9,1.7c2.6,0.6,4.5,1.2,5.8,1.8c1.2,0.6,2.2,1.5,2.9,2.5
						c0.7,1.1,1.1,2.4,1.1,4c0,1.4-0.4,2.8-1.3,4c-0.8,1.2-2,2.2-3.6,2.8c-1.5,0.6-3.5,0.9-5.8,0.9c-3.3,0-5.9-0.7-7.7-2.2
						C-581.3,324.5-582.4,322.4-582.7,319.6z"/>
					<path class="st3" d="M-543.3,327.7V307h-7.9v-4.2h21v4.2h-7.8v20.7H-543.3z"/>
					<path class="st3" d="M-493,327.7h-5.8l-2.3-5.7h-10.6l-2.2,5.7h-5.7l10.3-24.9h5.7L-493,327.7z M-502.8,317.8l-3.6-9.2
						l-3.6,9.2H-502.8z"/>
					<path class="st3" d="M-480.7,327.7v-24.9h5.3v24.9H-480.7z"/>
					<path class="st3" d="M-460.6,327.7v-24.9h11.3c2.8,0,4.9,0.2,6.2,0.7c1.3,0.4,2.3,1.2,3.1,2.4c0.8,1.1,1.2,2.5,1.2,3.9
						c0,1.9-0.6,3.4-1.8,4.6c-1.2,1.2-2.9,2-5.2,2.3c1.2,0.6,2.1,1.3,2.9,2.1c0.8,0.8,1.8,2.1,3,4l3.2,4.9h-6.4l-3.9-5.4
						c-1.4-1.9-2.3-3.2-2.8-3.7c-0.5-0.5-1-0.8-1.6-1c-0.6-0.2-1.5-0.3-2.7-0.3h-1.1v10.4H-460.6z M-455.3,313.3h4
						c2.6,0,4.2-0.1,4.8-0.3c0.6-0.2,1.1-0.6,1.5-1.1c0.4-0.5,0.5-1.1,0.5-1.9c0-0.8-0.2-1.5-0.7-2c-0.5-0.5-1.1-0.8-2-1
						c-0.4-0.1-1.7-0.1-3.9-0.1h-4.2V313.3z"/>
					<path class="st3" d="M-427.1,319.6l5.2-0.5c0.3,1.6,0.9,2.9,1.9,3.6c1,0.8,2.2,1.2,3.9,1.2c1.7,0,3-0.3,3.9-1
						c0.9-0.7,1.3-1.5,1.3-2.4c0-0.6-0.2-1.1-0.6-1.5c-0.4-0.4-1-0.8-1.9-1.1c-0.6-0.2-2.1-0.6-4.3-1.1c-2.9-0.7-4.9-1.5-6-2.5
						c-1.6-1.4-2.4-3-2.4-5c0-1.3,0.4-2.5,1.1-3.6c0.8-1.1,1.9-1.9,3.3-2.5c1.4-0.6,3.2-0.9,5.2-0.9c3.3,0,5.8,0.7,7.5,2.1
						c1.7,1.4,2.6,3.2,2.6,5.5l-5.3,0.2c-0.2-1.3-0.7-2.2-1.5-2.8c-0.8-0.6-1.9-0.8-3.4-0.8c-1.6,0-2.8,0.3-3.6,0.9
						c-0.6,0.4-0.8,0.9-0.8,1.5c0,0.6,0.3,1.1,0.8,1.5c0.7,0.5,2.3,1.1,4.9,1.7c2.6,0.6,4.5,1.2,5.8,1.8c1.2,0.6,2.2,1.5,2.9,2.5
						c0.7,1.1,1.1,2.4,1.1,4c0,1.4-0.4,2.8-1.3,4c-0.8,1.2-2,2.2-3.6,2.8c-1.5,0.6-3.5,0.9-5.8,0.9c-3.3,0-5.9-0.7-7.7-2.2
						C-425.7,324.5-426.8,322.4-427.1,319.6z"/>
					<path class="st3" d="M-401.9,327.7v-4.8h5.1v4.8H-401.9z"/>
					<path class="st3" d="M-374.9,315l-5,0.8c-0.2-0.9-0.6-1.6-1.1-2.1c-0.6-0.5-1.4-0.7-2.3-0.7c-1.3,0-2.3,0.4-3,1.2
						c-0.8,0.8-1.1,2.2-1.1,4.1c0,2.1,0.4,3.7,1.1,4.5c0.8,0.9,1.8,1.3,3.1,1.3c1,0,1.8-0.3,2.4-0.8c0.6-0.5,1-1.4,1.3-2.7l5,0.8
						c-0.5,2.2-1.5,3.8-3,4.9c-1.5,1.1-3.4,1.6-5.9,1.6c-2.8,0-5-0.8-6.7-2.5c-1.7-1.7-2.5-4-2.5-6.9c0-3,0.8-5.3,2.5-7
						c1.7-1.7,3.9-2.5,6.8-2.5c2.3,0,4.2,0.5,5.6,1.4C-376.5,311.6-375.5,313-374.9,315z"/>
					<path class="st3" d="M-372.9,318.4c0-1.6,0.4-3.1,1.2-4.6c0.8-1.5,2-2.6,3.5-3.4c1.5-0.8,3.2-1.2,5.1-1.2
						c2.9,0,5.3,0.9,7.1,2.7c1.9,1.8,2.8,4,2.8,6.7c0,2.7-0.9,5-2.8,6.8c-1.9,1.8-4.2,2.7-7.1,2.7c-1.8,0-3.4-0.4-5-1.1
						c-1.6-0.7-2.8-1.8-3.6-3.3C-372.5,322.3-372.9,320.5-372.9,318.4z M-367.7,318.7c0,1.8,0.5,3.2,1.4,4.1c0.9,1,2,1.4,3.3,1.4
						c1.3,0,2.4-0.5,3.3-1.4c0.9-1,1.3-2.3,1.3-4.1c0-1.8-0.4-3.1-1.3-4.1c-0.9-1-2-1.4-3.3-1.4c-1.3,0-2.4,0.5-3.3,1.4
						C-367.3,315.5-367.7,316.9-367.7,318.7z"/>
					<path class="st3" d="M-350.3,309.6h4.7v2.5c1.7-1.9,3.7-2.9,6-2.9c1.2,0,2.3,0.2,3.2,0.7c0.9,0.5,1.6,1.2,2.2,2.2
						c0.8-1,1.8-1.7,2.7-2.2c1-0.5,2-0.7,3.1-0.7c1.4,0,2.6,0.3,3.6,0.8c1,0.5,1.7,1.3,2.2,2.4c0.3,0.8,0.5,2,0.5,3.7v11.5h-5.1
						v-10.3c0-1.8-0.2-2.9-0.5-3.5c-0.5-0.7-1.2-1-2.2-1c-0.7,0-1.4,0.2-2,0.6c-0.6,0.4-1.1,1-1.4,1.8c-0.3,0.8-0.4,2-0.4,3.7v8.7
						h-5.1v-9.9c0-1.8-0.1-2.9-0.3-3.4c-0.2-0.5-0.5-0.9-0.8-1.1c-0.4-0.2-0.9-0.4-1.5-0.4c-0.8,0-1.5,0.2-2.1,0.6
						c-0.6,0.4-1.1,1-1.3,1.7c-0.3,0.7-0.4,2-0.4,3.7v8.8h-5.1V309.6z"/>
				</g>
			</g>
			<rect x="-885" y="338.3" class="st4" width="121.8" height="25.3"/>
			<rect x="-438.2" y="367.8" class="st4" width="121.8" height="25.3"/>
			<rect x="-755.3" y="338.3" class="st3" width="433.6" height="25.3"/>
			<rect x="-884.4" y="367.8" class="st3" width="439.4" height="25.3"/>
			<rect x="-439.3" y="367.8" class="st4" width="122.8" height="25.3"/>
			<path class="st2" d="M-875.4,225l144.1-34.4l-5.6-5.6l0.8-6.9l-140,38.1l-7.5,1.8c-2,0.5-3.2,2.5-2.7,4.5l0.3,1.2
				c0.4,1.8,2.2,3,4,2.8l0,0l0.3-0.1c0.1,0,0.1,0,0.2,0L-875.4,225z"/>
			<path class="st2" d="M-329.5,232.9l-3.5-0.6l-261.5-51.5l-0.8-12.6l6.5-2.5c0,0,4-1.2,0.6-3.4l-86.6-37.1l-72.9,27.9l7.9,3.8
				l-3.9,11l67.5-25.2l59,16.2l7.6,40.3l273.9,39l5.1,0.9c1.7,0.3,3.3-0.9,3.6-2.5l0-0.2C-326.7,234.8-327.8,233.2-329.5,232.9z"/>
		</g>
	</g>
</g>
</svg>
